<svg width="48" height="48" viewBox="0 0 48 48" fill="none" xmlns="http://www.w3.org/2000/svg">
<path d="M24 42.7826C17.3676 42.787 10.7929 41.5774 4.61531 39.2163C3.261 38.6946 2.09751 37.788 1.27489 36.6133C0.452278 35.4387 0.00827101 34.0498 0.000134282 32.626V15.3485C-0.00874086 13.9316 0.422518 12.5454 1.23681 11.3736C2.0511 10.2018 3.21002 9.29956 4.56011 8.78637C17.0445 4.03422 30.8955 4.02752 43.3847 8.76759C44.739 9.28926 45.9025 10.1959 46.7251 11.3706C47.5477 12.5452 47.9917 13.934 47.9999 15.3579V32.6354C48.0089 34.052 47.5777 35.4379 46.7633 36.6094C45.949 37.7809 44.79 38.6827 43.4399 39.1951C37.246 41.5686 30.6522 42.7854 24 42.7826Z" fill="url(#paint0_linear_1_3)"/>
<path d="M23.5 20.3333H20V16.6667C20 15.6942 19.6313 14.7616 18.9749 14.0739C18.3185 13.3863 17.4283 13 16.5 13C15.5717 13 14.6815 13.3863 14.0251 14.0739C13.3687 14.7616 13 15.6942 13 16.6667V20.3333H9.5C8.57174 20.3333 7.6815 20.7196 7.02513 21.4073C6.36875 22.0949 6 23.0275 6 24C6 24.9725 6.36875 25.9051 7.02513 26.5927C7.6815 27.2804 8.57174 27.6667 9.5 27.6667H13V31.3333C13 32.3058 13.3687 33.2384 14.0251 33.9261C14.6815 34.6137 15.5717 35 16.5 35C17.4283 35 18.3185 34.6137 18.9749 33.9261C19.6313 33.2384 20 32.3058 20 31.3333V27.6667H23.5C24.4283 27.6667 25.3185 27.2804 25.9749 26.5927C26.6313 25.9051 27 24.9725 27 24C27 23.0275 26.6313 22.0949 25.9749 21.4073C25.3185 20.7196 24.4283 20.3333 23.5 20.3333Z" fill="url(#paint1_linear_1_3)"/>
<path d="M38.5 20C40.433 20 42 18.433 42 16.5C42 14.567 40.433 13 38.5 13C36.567 13 35 14.567 35 16.5C35 18.433 36.567 20 38.5 20Z" fill="url(#paint2_linear_1_3)"/>
<path d="M31.5 35C33.433 35 35 33.433 35 31.5C35 29.567 33.433 28 31.5 28C29.567 28 28 29.567 28 31.5C28 33.433 29.567 35 31.5 35Z" fill="url(#paint3_linear_1_3)"/>
<defs>
<linearGradient id="paint0_linear_1_3" x1="6.0793" y1="6.46204" x2="41.133" y2="42.2924" gradientUnits="userSpaceOnUse">
<stop stop-color="#CBA6F7"/>
<stop offset="1" stop-color="#7F4DBB"/>
</linearGradient>
<linearGradient id="paint1_linear_1_3" x1="10.5255" y1="17.741" x2="23.03" y2="29.6771" gradientUnits="userSpaceOnUse">
<stop stop-color="#F6F0FE"/>
<stop offset="1" stop-color="#DFC9FA"/>
</linearGradient>
<linearGradient id="paint2_linear_1_3" x1="36.0255" y1="14.0255" x2="40.9745" y2="18.9745" gradientUnits="userSpaceOnUse">
<stop stop-color="#F6F0FE"/>
<stop offset="1" stop-color="#DFC9FA"/>
</linearGradient>
<linearGradient id="paint3_linear_1_3" x1="29.0255" y1="29.0255" x2="33.9745" y2="33.9745" gradientUnits="userSpaceOnUse">
<stop stop-color="#F6F0FE"/>
<stop offset="1" stop-color="#DFC9FA"/>
</linearGradient>
</defs>
</svg>
