<svg width="148" height="148" viewBox="0 0 148 148" fill="none" xmlns="http://www.w3.org/2000/svg">
<g clip-path="url(#clip0_3_2)">
<path d="M53.1206 105.319L74 84.4397L94.8794 105.319L105.319 94.8794L84.4397 74L105.319 53.1206L94.8794 42.6809L74 63.5603L53.1206 42.6809L42.6809 53.1206L63.5603 74L42.6809 94.8794L53.1206 105.319Z" fill="#CAD3F5"/>
<path d="M74 147.831C114.71 147.831 147.831 114.71 147.831 74C147.831 33.2896 114.71 0.168951 74 0.168951C33.2896 0.168951 0.168951 33.2896 0.168951 74C0.168951 114.71 33.2896 147.831 74 147.831ZM74 14.9352C106.567 14.9352 133.065 41.4331 133.065 74C133.065 106.567 106.567 133.065 74 133.065C41.4331 133.065 14.9352 106.567 14.9352 74C14.9352 41.4331 41.4331 14.9352 74 14.9352Z" fill="#CAD3F5"/>
</g>
<defs>
<clipPath id="clip0_3_2">
<rect width="148" height="148" fill="white"/>
</clipPath>
</defs>
</svg>
