<svg width="48" height="48" viewBox="0 0 48 48" fill="none" xmlns="http://www.w3.org/2000/svg">
<path d="M24 42.7826C17.3676 42.787 10.7929 41.5774 4.61531 39.2163C3.261 38.6946 2.09751 37.788 1.27489 36.6133C0.452278 35.4387 0.00827101 34.0498 0.000134282 32.626V15.3485C-0.00874086 13.9316 0.422518 12.5454 1.23681 11.3736C2.0511 10.2018 3.21002 9.29956 4.56011 8.78637C17.0445 4.03422 30.8955 4.02752 43.3847 8.76759C44.739 9.28926 45.9025 10.1959 46.7251 11.3706C47.5477 12.5452 47.9917 13.934 47.9999 15.3579V32.6354C48.0089 34.052 47.5777 35.4379 46.7633 36.6094C45.949 37.7809 44.79 38.6827 43.4399 39.1951C37.246 41.5686 30.6522 42.7854 24 42.7826Z" fill="url(#paint0_linear_1_3)"/>
<path d="M24.3333 20.3333H20.6667V16.6667C20.6667 15.6942 20.2804 14.7616 19.5927 14.0739C18.9051 13.3863 17.9725 13 17 13C16.0275 13 15.0949 13.3863 14.4073 14.0739C13.7196 14.7616 13.3333 15.6942 13.3333 16.6667V20.3333H9.66667C8.69421 20.3333 7.76158 20.7196 7.07394 21.4073C6.38631 22.0949 6 23.0275 6 24C6 24.9725 6.38631 25.9051 7.07394 26.5927C7.76158 27.2804 8.69421 27.6667 9.66667 27.6667H13.3333V31.3333C13.3333 32.3058 13.7196 33.2384 14.4073 33.9261C15.0949 34.6137 16.0275 35 17 35C17.9725 35 18.9051 34.6137 19.5927 33.9261C20.2804 33.2384 20.6667 32.3058 20.6667 31.3333V27.6667H24.3333C25.3058 27.6667 26.2384 27.2804 26.9261 26.5927C27.6137 25.9051 28 24.9725 28 24C28 23.0275 27.6137 22.0949 26.9261 21.4073C26.2384 20.7196 25.3058 20.3333 24.3333 20.3333Z" fill="url(#paint1_linear_1_3)"/>
<path d="M38.5 20C40.433 20 42 18.433 42 16.5C42 14.567 40.433 13 38.5 13C36.567 13 35 14.567 35 16.5C35 18.433 36.567 20 38.5 20Z" fill="url(#paint2_linear_1_3)"/>
<path d="M33.5 35C35.433 35 37 33.433 37 31.5C37 29.567 35.433 28 33.5 28C31.567 28 30 29.567 30 31.5C30 33.433 31.567 35 33.5 35Z" fill="url(#paint3_linear_1_3)"/>
<defs>
<linearGradient id="paint0_linear_1_3" x1="6.0793" y1="6.46204" x2="41.133" y2="42.2924" gradientUnits="userSpaceOnUse">
<stop stop-color="#CBA6F7"/>
<stop offset="0.02" stop-color="#C9A3F5"/>
<stop offset="0.51" stop-color="#804EBB"/>
<stop offset="1" stop-color="#7F4DBB"/>
</linearGradient>
<linearGradient id="paint1_linear_1_3" x1="10.741" y1="17.741" x2="23.259" y2="30.259" gradientUnits="userSpaceOnUse">
<stop stop-color="#DFC9FA"/>
<stop offset="1" stop-color="#F6F0FE"/>
</linearGradient>
<linearGradient id="paint2_linear_1_3" x1="36.0255" y1="14.0255" x2="40.9745" y2="18.9745" gradientUnits="userSpaceOnUse">
<stop stop-color="#DFC9FA"/>
<stop offset="1" stop-color="#F6F0FE"/>
</linearGradient>
<linearGradient id="paint3_linear_1_3" x1="31.0255" y1="29.0255" x2="35.9745" y2="33.9745" gradientUnits="userSpaceOnUse">
<stop stop-color="#DFC9FA"/>
<stop offset="1" stop-color="#F6F0FE"/>
</linearGradient>
</defs>
</svg>
